<svg xmlns="http://www.w3.org/2000/svg" width="32" height="32" viewBox="0 0 24 24"><path fill="currentColor" d="M13.61 12.243a1.6 1.6 0 1 1-1.56-1.63a1.62 1.62 0 0 1 1.56 1.63"/><path fill="currentColor" d="M14.763 7.233H9.338a2.024 2.024 0 0 0-2.024 2.024v5.547a2.024 2.024 0 0 0 2.024 2.024h5.425a2.024 2.024 0 0 0 2.024-2.024V9.267a2.026 2.026 0 0 0-2.024-2.034m-2.713 7.723a2.703 2.703 0 1 1 2.642-2.703a2.672 2.672 0 0 1-2.642 2.703m2.936-5.405a.496.496 0 0 1-.496-.506a.506.506 0 1 1 1.012 0a.496.496 0 0 1-.557.506z"/><path fill="currentColor" d="M12.05 2a10 10 0 1 0-.1 20a10 10 0 0 0 .1-20m6.073 12.702a3.39 3.39 0 0 1-3.41 3.411H9.389a3.392 3.392 0 0 1-3.411-3.41V9.378a3.39 3.39 0 0 1 3.41-3.411h5.325a3.39 3.39 0 0 1 3.41 3.41z"/></svg>