<svg xmlns="http://www.w3.org/2000/svg" width="32" height="32" viewBox="0 0 24 24"><path fill="currentColor" d="M21.535 14.938a10.1 10.1 0 0 1-4.973 5.901a10.287 10.287 0 0 1-7.734.718a12.94 12.94 0 0 0 1.93-4.935l.441.341a3.345 3.345 0 0 0 2.888.586a4.847 4.847 0 0 0 1.785-.748a4.789 4.789 0 0 0 1.341-1.384a6.58 6.58 0 0 0 .98-5.49a5.54 5.54 0 0 0-1.617-2.732a5.64 5.64 0 0 0-2.866-1.413a7.224 7.224 0 0 0-5.496.831a5.673 5.673 0 0 0-1.879 1.812a5.605 5.605 0 0 0-.859 2.452a5.105 5.105 0 0 0 .916 3.784a2.68 2.68 0 0 0 1.078.906c.259.128.388-.086.474-.352c.184-.522.324-.789.108-1.215a4.232 4.232 0 0 1-.3-4.1a4.273 4.273 0 0 1 1.352-1.646a4.338 4.338 0 0 1 1.988-.799a4.79 4.79 0 0 1 2.931.427a3.747 3.747 0 0 1 1.484 1.316c.366.563.572 1.213.596 1.881a5.589 5.589 0 0 1-.851 3.667a2.743 2.743 0 0 1-.912.932a2.779 2.779 0 0 1-1.244.41a1.469 1.469 0 0 1-1.279-.475a1.434 1.434 0 0 1-.316-1.315c.205-.842.485-1.673.7-2.526c.093-.347.126-.708.098-1.066a1.279 1.279 0 0 0-.664-1.053a1.316 1.316 0 0 0-1.255-.013c-.306.152-.566.38-.756.663c-.189.282-.3.609-.322.947a3.797 3.797 0 0 0 .14 1.961a.823.823 0 0 1 0 .458c-.377 1.62-.808 3.198-1.077 4.85c-.09.771-.116 1.549-.076 2.324v.5a10.115 10.115 0 0 1-5.339-5.049a9.95 9.95 0 0 1-.471-7.29a10.074 10.074 0 0 1 4.645-5.682a10.262 10.262 0 0 1 7.309-1.068c1.326.342 2.569.947 3.652 1.778a10.04 10.04 0 0 1 2.648 3.058a9.903 9.903 0 0 1 .802 7.848"/></svg>