<svg xmlns="http://www.w3.org/2000/svg" width="32" height="32" viewBox="0 0 24 24"><path fill="currentColor" d="m20.742 8.181l-1.63.433a.5.5 0 0 1 0-.11a7.88 7.88 0 0 0-.795-1.872a5.665 5.665 0 0 0-3.079-2.465a7.92 7.92 0 0 0-2.112-.392a8.382 8.382 0 0 0-1.59 0a6.912 6.912 0 0 0-2.365.664a5.463 5.463 0 0 0-2.324 2.213a7.576 7.576 0 0 0-.805 2.093c-.147.584-.245 1.18-.291 1.78c-.036.58-.036 1.162 0 1.741a11.58 11.58 0 0 0 .462 3.018a7.224 7.224 0 0 0 1.007 2.083a5.373 5.373 0 0 0 2.505 1.922c.62.238 1.27.387 1.932.443a9.648 9.648 0 0 0 1.941 0a6.037 6.037 0 0 0 2.174-.584a4.759 4.759 0 0 0 1.921-1.65a3.36 3.36 0 0 0 .463-2.958a2.766 2.766 0 0 0-1.107-1.52l-.352-.25c0 .13 0 .24-.05.351c-.1.622-.309 1.22-.614 1.771a3.654 3.654 0 0 1-2.656 1.902a4.576 4.576 0 0 1-2.213-.111a3.48 3.48 0 0 1-1.54-.895a2.898 2.898 0 0 1-.835-1.781a3.019 3.019 0 0 1 1.389-2.948a4.567 4.567 0 0 1 1.63-.644a9.468 9.468 0 0 1 1.77-.12c.455.01.909.05 1.359.12h.08v-.06a2.94 2.94 0 0 0-.382-1.077a1.902 1.902 0 0 0-1.258-.885a3.21 3.21 0 0 0-1.871 0a2.163 2.163 0 0 0-1.097.815l-.05.14l-1.379-.955a.614.614 0 0 0 .07-.101a3.914 3.914 0 0 1 2.456-1.56a4.86 4.86 0 0 1 2.545.111a3.512 3.512 0 0 1 2.153 1.831c.253.499.42 1.036.493 1.59c0 .211.05.423.07.634v.08l.413.202a5.32 5.32 0 0 1 1.69 1.338a4.589 4.589 0 0 1 1.007 2.012c.082.44.109.89.08 1.338a5.212 5.212 0 0 1-1.288 3.13a6.812 6.812 0 0 1-3.732 2.243c-1.229.273-2.495.33-3.743.17a8.522 8.522 0 0 1-2.757-.804a7.042 7.042 0 0 1-2.807-2.485a8.945 8.945 0 0 1-1.137-2.576a12.839 12.839 0 0 1-.392-2.012A16.702 16.702 0 0 1 4 11.764c0-.574 0-1.158.1-1.741c.077-.659.198-1.31.363-1.952c.207-.821.526-1.61.946-2.345a7.043 7.043 0 0 1 4.024-3.25a9.105 9.105 0 0 1 1.851-.412a11.208 11.208 0 0 1 2.395 0c.94.102 1.857.353 2.716.745a7.264 7.264 0 0 1 3.11 2.636c.54.826.948 1.733 1.207 2.686c.005.02.015.037.03.05m-5.665 4.025h-.07A8.338 8.338 0 0 0 14 12.065a9.392 9.392 0 0 0-1.067 0a4.617 4.617 0 0 0-1.177.16a2.013 2.013 0 0 0-.925.544a1.31 1.31 0 0 0 .11 1.952c.226.179.486.309.765.382a3.22 3.22 0 0 0 1.278.06c.291-.036.574-.124.835-.26c.389-.235.692-.587.865-1.007c.225-.54.357-1.116.392-1.7z"/></svg>