<svg xmlns="http://www.w3.org/2000/svg" width="32" height="32" viewBox="0 0 24 24"><path fill="currentColor" d="M20.357 7.75a.537.537 0 0 0-.495-.516a4.723 4.723 0 0 1-2.415-.938a4.85 4.85 0 0 1-1.887-3.3a.538.538 0 0 0-.517-.496h-2.108a.517.517 0 0 0-.517.527v12.59a2.794 2.794 0 0 1-2.974 2.762a2.815 2.815 0 0 1-2.51-3.711A2.836 2.836 0 0 1 9.93 12.78a.506.506 0 0 0 .558-.506V9.807s-.896-.063-1.202-.063a5.271 5.271 0 0 0-4.101 1.93a5.789 5.789 0 0 0-1.37 2.52a5.862 5.862 0 0 0 2.14 6.072A5.926 5.926 0 0 0 9.591 21.5a5.946 5.946 0 0 0 4.207-1.719a5.841 5.841 0 0 0 1.75-4.133V8.71a7.844 7.844 0 0 0 4.218 1.613a.517.517 0 0 0 .548-.527V7.751z"/></svg>