<svg xmlns="http://www.w3.org/2000/svg" width="32" height="32" viewBox="0 0 24 24"><path fill="currentColor" d="M22 11.939a26.45 26.45 0 0 0-.41-4.801a2.5 2.5 0 0 0-1.803-1.714a60.96 60.96 0 0 0-7.81-.41c-2.609-.03-5.217.11-7.808.42a2.522 2.522 0 0 0-1.76 1.76a26.382 26.382 0 0 0-.408 4.8c-.01 1.61.127 3.216.409 4.8a2.555 2.555 0 0 0 1.78 1.782c2.592.303 5.2.44 7.81.409a59.37 59.37 0 0 0 7.787-.41a2.521 2.521 0 0 0 1.759-1.758c.307-1.608.46-3.242.454-4.878m-7.411.582l-4.005 2.271a.53.53 0 0 1-.785-.464V9.616a.52.52 0 0 1 .785-.454l4.137 2.378a.52.52 0 0 1-.022.908z"/></svg>